<?xml version="1.0" encoding="UTF-8"?><svg xmlns="http://www.w3.org/2000/svg" viewBox="0 0 841.89 595.28"><defs><style>.cls-1{fill:#232323;}</style></defs><g id="Layer_3"><path class="cls-1" d="M451.31,3.8V266.59c0,2.1,1.7,3.79,3.79,3.79h154.62c2.13,0,3.84-1.75,3.79-3.87C612.77,233.74,602.28,4.04,455.25,0c-2.15-.06-3.95,1.64-3.95,3.79Z"/></g><g id="Layer_4"><path class="cls-1" d="M451.31,591.05V328.26c0-2.1,1.7-3.79,3.79-3.79h154.62c2.13,0,3.84,1.75,3.79,3.87-.75,32.76-11.24,262.47-158.27,266.51-2.15,.06-3.95-1.64-3.95-3.79Z"/></g><g id="Layer_5"><path class="cls-1" d="M234.95,591.48c0,2.25,1.93,3.99,4.17,3.78,25.39-2.46,158.1-28.22,158.1-297.52S264.5,2.67,239.12,.21c-2.24-.22-4.17,1.53-4.17,3.78V591.48Z"/></g></svg>